<?xml version="1.0" ?><!DOCTYPE svg  PUBLIC '-//W3C//DTD SVG 1.1//EN'  'http://www.w3.org/Graphics/SVG/1.1/DTD/svg11.dtd'><svg enable-background="new 0 0 300 300" height="300px" version="1.1" viewBox="0 0 300 300" width="300px" xml:space="preserve" xmlns="http://www.w3.org/2000/svg" xmlns:xlink="http://www.w3.org/1999/xlink"><g id="Layer_1"><g><path d="M291.428,118.679c-0.127-3.456-0.104-6.914-0.278-10.368c-0.092-1.833-0.035-4.317-1.021-6.042    c-0.239-1.747-1.256-3.421-3.252-4.256c-47.743-19.955-91.086-49.056-136.385-73.755c-1.54-0.839-3.517-0.969-5.047,0    c-18.664,11.817-36.415,24.822-55.713,35.666c-12.914,7.256-25.696,14.568-38.359,22.264    c-12.133,7.374-24.733,13.812-37.11,20.741c-0.195,0.09-0.381,0.197-0.562,0.313c-0.054,0.031-0.109,0.061-0.163,0.091    c-2.208,1.24-2.766,3.325-2.295,5.209c0.033,0.239,0.083,0.476,0.153,0.71c0.149,4.031-0.101,8.116-0.149,12.128    c-0.024,1.975-0.456,4.552,0.076,6.483c0.448,1.628,3.507,2.537,4.805,3.142c13.083,6.104,25.758,13.038,37.982,20.705    c-0.762,0.797-1.246,1.911-1.229,3.349c0.136,11.146-0.638,22.272-0.616,33.416c0.024,12.764,1.75,25.405,5.118,37.713    c0.78,2.851,1.662,8.661,3.949,10.948c2.124,2.124,5.704,3.441,8.32,4.876c2.868,1.571,5.773,3.075,8.695,4.544    c11.22,5.641,22.968,10.271,35.187,13.221c12.389,2.99,25.009,3.626,37.7,3.296c13.366-0.349,26.723-1.332,39.875-3.821    c12.448-2.356,24.522-6.648,35.521-12.949c9.44-5.406,19.846-12.383,27.407-20.238c0.997-1.036,1.418-2.192,1.425-3.313    c0.013-0.074,0.03-0.146,0.04-0.222c1.379-10.438,1.853-21.084,1.936-31.604c0.101-12.662-1.877-25.2-3.163-37.763    c-0.196-1.921-1.251-3.262-2.605-4.027c1.171-0.821,2.341-1.646,3.503-2.481c11.926-8.58,23.623-17.473,35.325-26.353    c0.007-0.005,0.012-0.012,0.019-0.017C291.061,120.012,291.457,119.482,291.428,118.679z M257.03,103.262    c-0.002-0.001-0.004-0.002-0.006-0.002c-1.019-0.257-2.036-0.476-3.055-0.71c2.278-1.758,4.471-3.616,6.499-5.665    c0.94,0.456,1.883,0.911,2.826,1.361C261.194,99.902,259.107,101.575,257.03,103.262z M234.44,83.496    c0.718,0.388,1.436,0.775,2.154,1.162c-5.069,5.458-11.55,9.381-17.553,13.767c-1.663-0.026-3.327-0.025-4.99-0.009    c6.335-4.951,12.491-10.108,19.849-13.496C234.563,84.615,234.661,84.008,234.44,83.496z M238.864,85.881    c1.141,0.608,2.286,1.205,3.43,1.807c-5.648,2.744-10.346,6.966-15.094,11.058c-1.347-0.08-2.693-0.154-4.04-0.205    C228.684,94.664,234.373,90.912,238.864,85.881z M244.375,89.451c0.234-0.106,0.392-0.252,0.497-0.417    c0.827,0.431,1.652,0.869,2.481,1.296c-3.914,3.036-7.829,6.073-11.744,9.109c-1.624-0.178-3.248-0.324-4.872-0.455    C234.967,95.34,239.258,91.766,244.375,89.451z M249.791,91.58c1.155,0.59,2.318,1.167,3.478,1.75    c-2.804,2.716-5.907,5.056-9.1,7.29c-1.689-0.276-3.379-0.528-5.067-0.749C242.664,97.107,246.228,94.343,249.791,91.58z     M255.623,94.515c0.815,0.405,1.63,0.813,2.447,1.215c-2.278,2.216-4.744,4.212-7.299,6.105c-1.05-0.218-2.099-0.417-3.148-0.612    C250.442,99.175,253.155,96.998,255.623,94.515z M148.164,51.498c4.185-3.182,8.408-6.313,12.737-9.302    c0.19-0.131,0.322-0.291,0.412-0.462c0.869,0.492,1.737,0.984,2.604,1.479c-0.139,0.027-0.28,0.076-0.425,0.164    c-5.981,3.639-11.425,8.052-16.541,12.816C147.274,54.582,147.68,53.014,148.164,51.498z M150.365,44.54    c2.165-1.681,4.207-3.503,6.024-5.58c0.887,0.498,1.771,0.998,2.657,1.498c-3.094,2.149-6.138,4.365-9.152,6.621    c0.142-0.301,0.27-0.612,0.42-0.906C150.617,45.582,150.584,45.014,150.365,44.54z M54.878,91.754    c12.679-7.63,25.311-15.174,38.282-22.298c19.138-10.51,36.664-23.321,54.993-35.07c0.495,0.272,0.988,0.545,1.481,0.818    c-2.594,2.09-5.157,4.22-7.751,6.309c-2.068,1.665-4.16,3.301-6.3,4.874c-1.003,0.736-2.943,2.597-4.27,2.65    c-1.606,0.064-1.613,2.564,0,2.5c3.27-0.13,6.904-3.99,9.309-5.856c3.847-2.985,7.553-6.144,11.355-9.184    c0.73,0.406,1.465,0.805,2.194,1.212c-5.558,6.086-13.117,9.89-19.635,14.835c-1.267,0.961-0.023,3.133,1.262,2.158    c3.078-2.335,6.386-4.424,9.615-6.608c-0.396,1.042-0.76,2.105-1.081,3.198c-1.805,1.386-3.605,2.778-5.404,4.172    c-1.273,0.987,0.51,2.743,1.768,1.768c0.889-0.689,1.781-1.375,2.671-2.063c-2.241,10.803-1.259,23.133,2.241,32.645    c0.828,2.25,4.453,1.278,3.616-0.997c-2.82-7.665-3.985-17.477-2.913-26.571c5.658-5.492,11.689-10.604,18.441-14.713    c0.634-0.386,0.705-1.051,0.466-1.576c1.262,0.721,2.523,1.442,3.783,2.166c-6.413,5.177-13.575,9.309-20.136,14.291    c-1.266,0.961-0.023,3.134,1.262,2.158c6.917-5.252,14.474-9.597,21.187-15.125c0.745,0.429,1.489,0.862,2.233,1.292    c-6.381,4.644-12.979,8.986-19.248,13.788c-1.261,0.966-0.019,3.139,1.262,2.158c6.627-5.076,13.626-9.633,20.344-14.583    c0.49,0.284,0.982,0.567,1.473,0.852c-6.229,4.831-12.457,9.662-18.686,14.494c-1.272,0.987,0.511,2.743,1.768,1.768    c6.412-4.974,12.824-9.947,19.236-14.92c1.204,0.698,2.407,1.399,3.611,2.099c-6.594,4.774-13.346,9.329-19.807,14.285    c-1.261,0.966-0.018,3.14,1.262,2.158c6.817-5.229,13.957-10.013,20.894-15.078c0.979,0.57,1.96,1.139,2.939,1.709    c-0.057,0.032-0.114,0.063-0.171,0.106c-6.342,4.882-12.93,9.432-19.271,14.313c-1.259,0.968-0.016,3.142,1.262,2.158    c6.342-4.882,12.931-9.431,19.271-14.313c0.464-0.357,0.586-0.877,0.494-1.343c1.154,0.672,2.31,1.343,3.465,2.015    c-6.579,4.698-12.7,9.964-18.785,15.283c-1.216,1.063,0.56,2.824,1.768,1.768c6.264-5.475,12.552-10.908,19.379-15.677    c1.02,0.592,2.041,1.182,3.061,1.773c-4.854,6.458-12.372,10.627-18.696,15.457c-1.263,0.964-0.021,3.137,1.262,2.158    c6.68-5.101,14.524-9.51,19.606-16.358c0.934,0.541,1.866,1.082,2.801,1.621c-6.005,5-11.531,10.564-17.929,15.086    c-1.305,0.922-0.058,3.091,1.262,2.158c6.764-4.781,12.589-10.673,18.973-15.917c1.243,0.715,2.488,1.426,3.732,2.139    c-0.018,0.012-0.034,0.018-0.051,0.031c-6.605,5.085-13.456,9.84-20.061,14.927c-1.258,0.969-0.016,3.142,1.262,2.158    c6.604-5.086,13.455-9.841,20.061-14.927c0.418-0.321,0.556-0.774,0.513-1.202c1.146,0.654,2.292,1.308,3.439,1.959    c-6.362,4.934-12.724,9.868-19.085,14.802c-1.272,0.987,0.511,2.743,1.768,1.768c6.553-5.083,13.106-10.165,19.66-15.248    c0.951,0.538,1.902,1.077,2.855,1.612c-6.179,4.801-12.325,9.639-18.235,14.771c-1.22,1.059,0.557,2.819,1.768,1.768    c6.094-5.292,12.438-10.271,18.812-15.219c0.591,0.33,1.186,0.654,1.777,0.983c-5.201,6.06-11.508,11.011-17.8,15.894    c-1.272,0.987,0.511,2.743,1.768,1.768c6.478-5.026,12.973-10.123,18.259-16.431c2.036,1.126,4.074,2.248,6.118,3.359    c-0.088,0.021-0.178,0.051-0.268,0.093c-7.615,3.506-13.975,8.908-20.532,14.025c-0.654,0.51-0.496,1.222-0.02,1.66    c-14.191,0.274-28.405,1.992-42.728,4.462c-2.38,0.411-1.368,4.024,0.996,3.616c17.671-3.049,35.151-4.929,52.636-4.266    c-0.064,0.051-0.128,0.104-0.192,0.155c-1.265,0.999,0.518,2.756,1.768,1.768c0.716-0.566,1.423-1.147,2.125-1.734    c1.537,0.09,3.073,0.201,4.61,0.333c-1.579,1.225-3.157,2.449-4.736,3.673c-1.272,0.987,0.511,2.743,1.768,1.768    c2.194-1.702,4.388-3.403,6.582-5.105c1.585,0.172,3.171,0.367,4.757,0.587c-2.27,1.543-4.533,3.097-6.717,4.756    c-1.266,0.961-0.022,3.134,1.262,2.158c2.936-2.231,6.014-4.276,9.06-6.354c1.103,0.179,2.204,0.366,3.307,0.569    c-3.147,2.193-6.335,4.34-9.379,6.658c-1.265,0.962-0.021,3.135,1.262,2.158c3.732-2.841,7.681-5.432,11.515-8.155    c1.122,0.234,2.245,0.496,3.368,0.757c-3.691,3.01-7.384,6.02-11.14,8.95c-1.271,0.991,0.513,2.747,1.768,1.768    c4.207-3.283,8.336-6.661,12.472-10.032c0.981,0.044,1.656-0.68,1.852-1.504c2.479-2.015,4.968-4.019,7.48-5.991    c1.192,0.562,2.396,1.102,3.592,1.653c-7.404,5.743-14.808,11.485-22.212,17.228c-1.272,0.987,0.511,2.743,1.768,1.768    c7.663-5.944,15.326-11.887,22.989-17.83c1.397,0.635,2.792,1.274,4.196,1.896c-7.331,6.786-15.61,12.355-24.017,17.785    c-10.934,7.062-21.865,14.126-32.598,21.492c-2.308,1.583-4.6,3.186-6.887,4.796c-4.551-1.824-8.705-5.573-12.564-8.164    c-5.511-3.7-10.819-7.688-16.313-11.41c-9.729-6.591-20.348-11.979-29.188-19.787c0.762-0.448,1.438-0.998,1.983-1.667    c3.124-3.831,1.491-9.64-3.08-11.268c-4.574-1.629-10.594-0.517-14.122,2.924c-0.286,0.152-0.539,0.41-0.718,0.804    c-0.048,0.106-0.08,0.207-0.124,0.312c-0.001,0.004-0.003,0.007-0.004,0.01c-2.926,7.076,5.297,11.09,11.972,10.219    c9.322,8.737,20.8,14.681,31.388,21.69c6.581,4.356,12.865,9.15,19.454,13.501c2.72,1.796,5.229,3.732,7.955,5.214    c-17.283,12.29-34.195,25.057-52.422,35.975c-28.311-14.348-53.775-32.997-80.509-49.974    c-16.302-10.353-33.678-18.92-50.297-28.753C35.691,102.578,45.425,97.444,54.878,91.754z M229.855,163.89    c0.163,0.081,0.353,0.129,0.578,0.124c5.503-0.12,9.924-3.069,14.369-5.956c0.083,0.741,0.168,1.483,0.252,2.226    c-0.294-0.014-0.602,0.073-0.88,0.312c-5.96,5.102-14.242,7.331-22.034,8.589C224.697,167.396,227.271,165.635,229.855,163.89z     M235.209,228.475c-3.508,1.601-7.25,2.848-11.082,3.788c0.621-0.978,1.185-1.973,1.698-2.985    c7.337-1.846,14.356-5.211,20.05-9.793c-0.025,0.221-0.055,0.44-0.081,0.661C242.566,223.258,238.903,225.908,235.209,228.475z     M247.206,202.258c-4.688,2.988-11.651,4.273-16.846,3.998c-0.022-1.292-0.074-2.584-0.153-3.875    c5.947-0.244,11.616-2.076,17.135-4.218C247.307,199.527,247.262,200.893,247.206,202.258z M228.754,221.466    c6.352-0.353,12.334-3.125,17.608-6.57c-0.034,0.369-0.076,0.736-0.113,1.105c-0.134,0.054-0.266,0.128-0.391,0.24    c-5.167,4.62-11.731,8.058-18.687,10.078C227.808,224.733,228.326,223.112,228.754,221.466z M246.591,212.235    c-0.289-0.097-0.624-0.068-0.967,0.16c-4.876,3.252-10.386,6.024-16.288,6.528c0.312-1.566,0.551-3.15,0.716-4.749    c5.566,0.388,11.936-1.289,16.735-4.464C246.727,210.553,246.66,211.395,246.591,212.235z M247,206.47    c-4.397,3.626-11.066,5.547-16.747,5.222c0.06-0.976,0.091-1.955,0.106-2.936c5.21,0.283,11.703-0.893,16.705-3.555    C247.042,205.624,247.024,206.047,247,206.47z M247.398,195.473c-5.589,2.201-11.341,4.197-17.386,4.418    c-0.061-0.555-0.139-1.105-0.227-1.653c6.207-0.995,12.259-2.844,17.644-6.032C247.425,193.293,247.416,194.382,247.398,195.473z     M216.805,179.981c0.694-0.063,1.488-0.075,1.956,0.131c0.568,0.251,0.805,0.589,0.902,0.837c0.444,1.134,0.176,2.364-0.505,3.479    c-0.231,0.379-0.107,0.189-0.41,0.499c-0.184,0.188-0.445,0.336-0.331,0.288c-0.598,0.252-0.589,0.2-1.193-0.166    c-0.809-0.489-1.161-1.3-1.227-2.214C215.95,182.188,216.055,180.333,216.805,179.981z M223.147,186.511    c-0.313,0.021-0.564,0.135-0.756,0.302c-0.081-0.029-0.157-0.066-0.24-0.094c0.858-1.171,1.323-2.644,1.411-4.111    c7.887-0.849,16.188-2.738,23.143-6.714c0.074,0.85,0.139,1.7,0.204,2.55C239.997,183.017,231.356,185.975,223.147,186.511z     M246.449,173.138c-6.819,4.17-15.225,6.159-23.107,6.993c-0.304-1.121-0.934-1.989-1.76-2.619    c8.37-1.371,17.465-3.158,24.489-8.085C246.203,170.663,246.329,171.9,246.449,173.138z M211.88,176.785    c0.025-0.005,0.049-0.004,0.075-0.011c1.039-0.254,2.06-0.533,3.066-0.86c0.018,0.276,0.026,0.553,0.039,0.83    c-0.63,0.386-1.151,0.885-1.566,1.461c-1.436,0.813-3.007,1.149-4.658,1.236c-0.183,0.01-0.341,0.054-0.482,0.118    C209.527,178.628,210.702,177.702,211.88,176.785z M217.42,189.993c8.407-0.758,8.854,8.109,9.156,14.427    c0.329,6.863-0.281,13.689-2.692,19.964c-0.497-4.105-1.895-8.11-3.775-11.901c-0.824-1.661-3.597-0.885-3.494,0.946    c0.128,2.272-0.225,4.442-0.67,6.604c-2.102-4.57-3.884-9.254-4.859-14.237C210.311,201.847,211.288,189.751,217.42,189.993z     M247.411,189.276c-5.477,3.51-11.695,5.479-18.129,6.527c-0.227-0.884-0.503-1.735-0.829-2.548    c6.581-1.034,12.977-2.963,18.926-5.91C247.396,187.988,247.404,188.632,247.411,189.276z M227.282,190.927    c-0.495-0.795-1.063-1.517-1.718-2.144c7.481-0.872,15.15-3.513,21.553-7.51c0.069,1.104,0.116,2.209,0.165,3.314    C241.034,187.838,234.27,189.879,227.282,190.927z M219.341,175.357c-0.257,0.041-0.449,0.143-0.594,0.277    c-0.086-1.155-0.219-2.312-0.379-3.469c0.12,0.023,0.25,0.033,0.398,0.014c9.17-1.227,19.219-3.375,26.577-9.337    c0.142,1.239,0.281,2.479,0.419,3.72C238.498,172.314,228.219,173.928,219.341,175.357z M158.974,207.763    c-0.315-3.508-0.814-6.996-1.259-10.491c0.599-0.091,1.219-0.301,1.846-0.669c18.613-10.914,35.833-23.812,53.344-36.332    c0.353,3.292,0.969,6.574,1.462,9.867C196.467,183.419,180.029,199.938,158.974,207.763z M141.788,101.714    c2.095-2.108,5.165-2.814,8.067-2.724c3.284,0.103,5.592,2.313,3.937,5.623C151.964,108.268,139.785,106.702,141.788,101.714z     M15.209,126.363c-0.133-0.073-0.235-0.111-0.321-0.133c0.051-0.176,0.087-0.458,0.084-0.898    c-0.008-1.317,0.011-2.636,0.025-3.953c0.029-2.782,0.16-5.597,0.19-8.404c18.099,11.227,37.277,20.637,55.393,31.837    c27.84,17.213,53.837,36.826,83.257,51.447c0.434,3.52,0.944,7.03,1.294,10.557c-12.158-8.339-26.666-13.508-39.594-20.436    c-8.208-4.399-16.398-8.815-24.311-13.732c-7.585-4.715-14.572-10.281-21.884-15.393c-2.392-1.672-4.815-3.297-7.251-4.9    c-0.715-1.072-1.839-1.74-3.063-2.002c-11.088-7.118-22.6-13.561-34.409-19.415C21.497,129.391,18.264,128.034,15.209,126.363z     M210.748,243.087c-15.588,6.528-32.613,8.656-49.353,9.585c-16.887,0.938-33.364,0.691-49.794-3.709    c-15.042-4.028-29.024-11.079-42.519-18.722c-3.556-11.823-6.142-23.552-6.692-35.97c-0.544-12.293,0.497-24.597,0.491-36.895    c0.124,0.082,0.249,0.161,0.372,0.244c7.247,4.858,14.093,10.27,21.306,15.168c8.247,5.601,17.042,10.363,25.814,15.076    c7.981,4.288,15.978,8.402,24.191,12.229c7.558,3.521,15.145,7.133,21.805,12.209c0.779,0.594,1.849,0.215,2.42-0.504    c18.549-6.539,33.737-19.655,49.122-31.89c-0.572,0.742-0.27,2.095,0.924,2.032c1.186-0.063,2.354-0.226,3.476-0.542    c-0.079,0.679-0.078,1.372,0.017,2.053c-0.893,0.936-2.373,1.259-3.599,1.332c-1.602,0.097-1.611,2.597,0,2.5    c1.59-0.095,3.124-0.49,4.397-1.336c0.189,0.361,0.4,0.708,0.65,1.024c0.034,0.043,0.075,0.072,0.109,0.114    c-0.383,0.21-0.746,0.456-1.094,0.731c-1.513,0.307-3.027,0.572-4.574,0.657c-1.604,0.088-1.611,2.588,0,2.5    c0.674-0.037,1.343-0.11,2.009-0.197c-1.713,2.754-2.698,6.232-3.115,8.878c-0.932,5.896,0.998,12.194,3.546,18.038    c-0.725,0.275-1.449,0.552-2.173,0.827c-0.637,0.242-1.067,0.833-0.873,1.537c0.167,0.61,0.899,1.116,1.537,0.873    c0.846-0.322,1.691-0.644,2.537-0.966c0.377,0.807,0.759,1.603,1.144,2.384c-1.495,0.223-2.999,0.402-4.495,0.485    c-1.603,0.089-1.611,2.589,0,2.5c1.884-0.104,3.783-0.347,5.662-0.646c0.361,0.716,0.719,1.422,1.063,2.106    c0.691,1.375,3.172,1.153,3.427-0.448c0.275-1.724,0.664-3.408,1.021-5.092c0.565,2.15,0.881,4.349,0.848,6.567    c-3.967,0.597-7.955,0.733-11.794,0.34c-1.604-0.164-1.588,2.337,0,2.5c3.782,0.388,7.694,0.269,11.592-0.277    c-0.083,0.587-0.186,1.175-0.324,1.763c-0.091,0.383-0.074,0.729,0.015,1.03c-2.683,0.51-5.374,0.905-8.018,1.186    c-1.586,0.168-1.603,2.67,0,2.5c5.104-0.541,10.306-1.444,15.336-2.855C221.943,237.479,216.601,240.636,210.748,243.087z     M244.504,155.278c-3.242,2.092-6.472,4.46-10.135,5.583c3.34-2.234,6.684-4.465,10.013-6.717    C244.422,154.522,244.463,154.9,244.504,155.278z M220.692,165.644c-1.017,0.686-2.023,1.39-3.027,2.102    c-0.569-3.306-1.162-6.614-1.336-9.916c2.728-1.936,5.464-3.859,8.217-5.761c10.709-7.397,21.655-14.45,32.598-21.493    c10.383-6.682,20.67-13.673,29.326-22.542c0.316-0.032,0.616-0.103,0.897-0.208c0.056,0.918,0.097,1.837,0.129,2.755    c0.086,2.397,0.093,4.796,0.161,7.194C265.732,134.383,243.492,150.262,220.692,165.644z" fill="#0A384A"/><path d="M51.393,109.909c9.41-1.978,18.741-4.178,28.331-5.11c15.624-1.519,31.474-0.39,47.061,0.986    c2.41,0.213,2.389-3.539,0-3.75c-15.624-1.379-31.402-2.397-47.061-0.986c-9.926,0.895-19.598,3.198-29.328,5.244    C48.03,106.79,49.033,110.404,51.393,109.909z" fill="#609691"/><path d="M152.677,171.089c-0.132,2.417,3.618,2.404,3.75,0c0.94-17.193,0.315-34.9-3.566-51.729    c-0.543-2.356-4.159-1.356-3.616,0.997C153.051,136.856,153.6,154.23,152.677,171.089z" fill="#F4F3E1"/></g></g><g id="Layer_2"/></svg>